<svg width="35" height="34" viewBox="0 0 35 34" fill="none" xmlns="http://www.w3.org/2000/svg">
<path id="Vector" d="M4.15512 0.277344C2.31918 0.277344 0.821777 1.77474 0.821777 3.61067V30.2773C0.821777 32.1133 2.31918 33.6106 4.15512 33.6106H30.8218C32.6577 33.6106 34.1551 32.1133 34.1551 30.2773V3.61067C34.1551 1.77474 32.6577 0.277344 30.8218 0.277344H4.15512ZM4.15512 3.61067H30.8218V23.6106H22.4884C22.4884 26.4427 20.3205 28.6106 17.4884 28.6106C14.6564 28.6106 12.4884 26.4427 12.4884 23.6106H4.15512V3.61067ZM14.1551 6.94404V13.6106H9.15512L17.4884 21.944L25.8218 13.6106H20.8218V6.94404H14.1551Z" fill="black"/>
</svg>
