<svg width="241" height="208" viewBox="0 0 241 208" fill="none" xmlns="http://www.w3.org/2000/svg">
<g id="Img" clip-path="url(#clip0_50_2852)">
<path id="Vector" d="M120.648 0.952576C135.86 0.952576 150.883 4.31567 164.642 10.8011L120.648 104.143" fill="#FFC500"/>
<path id="Vector_2" d="M164.642 10.8011C176.564 16.4205 187.299 24.2718 196.267 33.9307L120.648 104.143" fill="#F79F22"/>
<path id="Vector_3" d="M196.267 33.9307C201.36 39.416 205.841 45.4392 209.631 51.8939L120.648 104.143" fill="#00836C"/>
<path id="Vector_4" d="M209.631 51.894C218.704 67.3461 223.596 84.8945 223.827 102.812C224.058 120.729 219.62 138.398 210.949 154.079L120.648 104.143" fill="#1269D3"/>
<path id="Vector_5" d="M210.949 154.08C204.655 165.461 196.267 175.55 186.225 183.815L120.648 104.143" fill="#3789C7"/>
<path id="Vector_6" d="M186.225 183.815C171.498 195.937 153.7 203.74 134.806 206.357C115.912 208.974 96.6626 206.303 79.1953 198.64L120.649 104.143" fill="#27AE60"/>
<path id="Vector_7" d="M79.1952 198.641C66.2809 192.975 54.665 184.723 45.0645 174.393C35.464 164.063 28.0828 151.874 23.3766 138.58C18.6703 125.286 16.7389 111.168 17.7017 97.0988C18.6644 83.0291 22.5008 69.3061 28.9741 56.777L120.648 104.143" fill="#CE7FD8"/>
<path id="Vector_8" d="M28.9736 56.7761C36.3579 42.4838 46.9814 30.116 59.9959 20.6601L120.648 104.143" fill="#DB3F40"/>
<path id="Vector_9" d="M59.9961 20.6601C68.7562 14.2954 78.4634 9.34918 88.7615 6.00305L120.648 104.143" fill="#666666"/>
<path id="Vector_10" d="M88.7617 6.00305C99.0598 2.65692 109.82 0.952576 120.648 0.952576V104.143" fill="#5B27F0"/>
<path id="Vector_11" d="M172.242 104.143C172.242 75.6481 149.143 52.5483 120.648 52.5483C92.154 52.5483 69.0547 75.6481 69.0547 104.143C69.0547 132.638 92.154 155.738 120.648 155.738C149.143 155.738 172.242 132.638 172.242 104.143Z" fill="white"/>
</g>
<defs>
<clipPath id="clip0_50_2852">
<rect width="206.38" height="240" fill="white" transform="matrix(0 -1 1 0 0.648438 207.333)"/>
</clipPath>
</defs>
</svg>
