<svg width="50" height="47" viewBox="0 0 50 47" fill="none" xmlns="http://www.w3.org/2000/svg">
<g id="Frame">
<g id="Group" opacity="0.6">
<path id="Vector" opacity="0.6" d="M38.469 28.1136C43.0646 28.1136 46.7899 24.3885 46.7899 19.7934C46.7899 15.1983 43.0646 11.4733 38.469 11.4733C33.8737 11.4733 30.1482 15.1983 30.1482 19.7934C30.1482 24.3885 33.8737 28.1136 38.469 28.1136Z" fill="#27AE60"/>
<path id="Vector_2" opacity="0.6" d="M39.0973 18.8378L37.511 18.8339L37.4526 42.1782L39.039 42.1821L39.0973 18.8378Z" fill="#27AE60"/>
</g>
<g id="Group_2" opacity="0.3">
<path id="Vector_3" opacity="0.3" d="M12.459 31.4656C15.8312 31.4656 18.5649 28.7321 18.5649 25.3602C18.5649 21.9883 15.8312 19.2548 12.459 19.2548C9.08675 19.2548 6.35303 21.9883 6.35303 25.3602C6.35303 28.7321 9.08675 31.4656 12.459 31.4656Z" fill="#27AE60"/>
<path id="Vector_4" opacity="0.3" d="M12.9378 24.6719H11.7705V41.791H12.9378V24.6719Z" fill="#27AE60"/>
</g>
<path id="Vector_5" d="M24.8505 22.9958C31.1156 22.9958 36.1943 17.9174 36.1943 11.6529C36.1943 5.38834 31.1156 0.309937 24.8505 0.309937C18.5854 0.309937 13.5066 5.38834 13.5066 11.6529C13.5066 17.9174 18.5854 22.9958 24.8505 22.9958Z" fill="#27AE60"/>
<path id="Vector_6" opacity="0.5" d="M18.8898 11.5406L17.5095 13.2344L24.2847 18.7554L25.6649 17.0616L18.8898 11.5406Z" fill="#4E5B63"/>
<path id="Vector_7" d="M25.7184 10.3361H23.5334V42.21H25.7184V10.3361Z" fill="#4E5B63"/>
<path id="Vector_8" d="M46.7897 46.3705H3.32982C1.65369 46.3705 0.276855 45.0236 0.276855 43.3176V40.4741H49.7828V43.3176C49.8128 45.0236 48.4659 46.3705 46.7897 46.3705Z" fill="#72D6A4"/>
</g>
</svg>
