<svg width="36" height="36" viewBox="0 0 36 36" fill="none" xmlns="http://www.w3.org/2000/svg">
<g id="SVG">
<path id="Vector" d="M30.042 3.64356H21.64C21.3795 3.64356 21.1286 3.74661 20.9429 3.93036L4.14781 20.7265C3.77984 21.096 3.57324 21.5962 3.57324 22.1177C3.57324 22.6392 3.77984 23.1395 4.14781 23.509L12.1453 31.5065C12.5148 31.8744 13.0151 32.081 13.5366 32.081C14.058 32.081 14.5583 31.8744 14.9278 31.5065L31.7171 14.7181C31.9009 14.5324 32.0039 14.2816 32.0039 14.0201V5.61231C32.0051 5.35402 31.9552 5.09804 31.8571 4.85911C31.759 4.62017 31.6146 4.40298 31.4323 4.22003C31.2499 4.03707 31.0333 3.89196 30.7947 3.79302C30.5561 3.69409 30.3003 3.6433 30.042 3.64356Z" stroke="#27AE60" stroke-width="2.1875" stroke-linecap="round" stroke-linejoin="round"/>
<path id="Vector_2" d="M26.5381 11.2998C25.9579 11.2998 25.4015 11.0693 24.9913 10.6591C24.5811 10.2489 24.3506 9.69247 24.3506 9.1123C24.3506 8.53214 24.5811 7.97574 24.9913 7.56551C25.4015 7.15527 25.9579 6.9248 26.5381 6.9248C27.1182 6.9248 27.6746 7.15527 28.0849 7.56551C28.4951 7.97574 28.7256 8.53214 28.7256 9.1123C28.7256 9.69247 28.4951 10.2489 28.0849 10.6591C27.6746 11.0693 27.1182 11.2998 26.5381 11.2998Z" stroke="#27AE60" stroke-width="2.1875" stroke-linecap="round" stroke-linejoin="round"/>
</g>
</svg>
