<svg width="36" height="36" viewBox="0 0 36 36" fill="none" xmlns="http://www.w3.org/2000/svg">
<g id="SVG" clip-path="url(#clip0_50_1603)">
<path id="Vector" d="M15.509 11.555C15.2744 11.3046 14.9919 11.1038 14.6782 10.9648C14.3646 10.8257 14.0261 10.7511 13.683 10.7455C13.34 10.7398 12.9992 10.8032 12.6812 10.9319C12.3631 11.0606 12.0741 11.2519 11.8314 11.4945C11.5888 11.7371 11.3974 12.026 11.2686 12.344C11.1398 12.6621 11.0763 13.0028 11.0819 13.3458C11.0874 13.6889 11.1619 14.0274 11.3009 14.3411C11.4398 14.6548 11.6405 14.9374 11.8909 15.172L29.9815 33.2627C30.216 33.5131 30.4985 33.7138 30.8122 33.8529C31.1259 33.992 31.4643 34.0665 31.8074 34.0722C32.1505 34.0778 32.4912 34.0144 32.8093 33.8858C33.1274 33.7571 33.4164 33.5658 33.659 33.3232C33.9017 33.0806 34.0931 32.7917 34.2219 32.4736C34.3506 32.1556 34.4141 31.8149 34.4086 31.4718C34.403 31.1287 34.3286 30.7903 34.1896 30.4765C34.0506 30.1628 33.85 29.8802 33.5996 29.6456L15.509 11.555Z" stroke="#27AE60" stroke-width="2.59766" stroke-miterlimit="10"/>
<path id="Vector_2" d="M11.8977 11.5619C11.4168 12.0437 11.1467 12.6967 11.1467 13.3775C11.1467 14.0583 11.4168 14.7113 11.8977 15.1931L15.5399 18.8353L19.1722 15.2041L15.53 11.5619C15.2916 11.3232 15.0085 11.1339 14.6969 11.0047C14.3853 10.8755 14.0512 10.809 13.7139 10.809C13.3765 10.809 13.0425 10.8755 12.7308 11.0047C12.4192 11.1339 12.1361 11.3232 11.8977 11.5619ZM1.31457 12.6666H5.21051H1.31348H1.31457ZM13.0035 0.977656V4.87359V0.976562V0.977656Z" fill="#27AE60"/>
<path id="Vector_3" d="M7.49316 18.1769L4.73801 20.932M4.73801 4.40109L7.49316 7.15625M21.2689 4.40109L18.5138 7.15625M1.31457 12.6666H5.21051H1.31348H1.31457ZM13.0035 0.977656V4.87359V0.976562V0.977656Z" stroke="#27AE60" stroke-width="2.59766"/>
</g>
<defs>
<clipPath id="clip0_50_1603">
<rect width="35" height="35" fill="white" transform="translate(0.69873 0.362305)"/>
</clipPath>
</defs>
</svg>
